<svg width="106" height="106" viewBox="0 0 106 106" fill="none" xmlns="http://www.w3.org/2000/svg">
<path d="M68.7076 47.0353C64.7143 51.3684 58.9282 54.0997 52.5 54.0997C46.0709 54.0997 40.2857 51.3693 36.2924 47.0361C27.7094 52.9544 22 63.4279 22 75.3712C22 90.2906 35.6554 89.9466 52.5 89.9466C69.3454 89.9466 83 91.6814 83 75.3712C83 63.4279 77.2906 52.9536 68.7076 47.0353Z" fill="#E7E5E4"/>
<path d="M52.5 16C42.9852 16 35.2443 23.5522 35.2443 32.8349C35.2443 37.4675 37.1724 41.6678 40.2866 44.7152C43.4127 47.7736 47.7336 49.6698 52.5 49.6698C57.2656 49.6698 61.5872 47.7736 64.7134 44.7144C67.8276 41.6669 69.7557 37.4666 69.7557 32.8349C69.7557 23.5522 62.0148 16 52.5 16Z" fill="#E7E5E4"/>
</svg>
